# xmcd
#
# Track frame offsets:
#	150
#	11135
#	18070
#	23580
#	30785
#	41377
#	59382
#	61405
#	69475
#	73485
#	77032
#	85757
#	110067
#	123037
#	142750
#	153230
#	156272
#	172220
#	180000
#
# Disc length: 2578 seconds
#
# Revision: 1
# Processed by: cddbd v1.5.2PL0 Copyright (c) Steve Scherf et al.
# Submitted via: audiograbber 1.83.01
#
DISCID=e50a1013
DTITLE=Willie Nelson - Red Headed Stranger
DYEAR=1975
DGENRE=
TTITLE0=Time Of The Preacher
TTITLE1=I Couldn't Believe It Was True
TTITLE2=Time Of The Preacher Theme
TTITLE3=Medley: Blue Rock Montana/Red Headed Stranger
TTITLE4=Blue Eyes Crying In The Rain
TTITLE5=Red Headed Stranger
TTITLE6=Time Of The Preacher Theme
TTITLE7=Just As I Am
TTITLE8=Denver
TTITLE9=O'er The Waves
TTITLE10=Down Yonder
TTITLE11=Can I Sleep In Your Arms
TTITLE12=Remember Me
TTITLE13=Hands On The Wheel
TTITLE14=Bandera
TTITLE15=Bach Minuet In G
TTITLE16=Can't Help It ( If I'm Still In Love)
TTITLE17=A Maiden's Prayer
TTITLE18=Bonaparte's Retreat
EXTD=
EXTT0=
EXTT1=
EXTT2=
EXTT3=
EXTT4=
EXTT5=
EXTT6=
EXTT7=
EXTT8=
EXTT9=
EXTT10=
EXTT11=
EXTT12=
EXTT13=
EXTT14=
EXTT15=
EXTT16=
EXTT17=
EXTT18=
PLAYORDER=
